<svg width="172.000000" height="20.000000" viewBox="0 0 172 20" fill="none" xmlns="http://www.w3.org/2000/svg" xmlns:xlink="http://www.w3.org/1999/xlink">
	<desc>
			Created with Pixso.
	</desc>
	<defs/>
	<path id="BUSINESS" d="M9.76562 0C11.3062 0 12.6558 0.208984 13.8154 0.626709C14.9756 1.04468 15.8662 1.63428 16.4888 2.39551C17.1113 3.15698 17.4224 4.0437 17.4224 5.05566C17.4224 6.04004 17.1289 6.92212 16.5425 7.7019C15.9561 8.48193 15.1655 9.02515 14.1719 9.33154C15.3267 9.60083 16.2539 10.1951 16.9521 11.1143C17.6509 12.0334 18 13.1245 18 14.3872C18 15.5107 17.6777 16.4995 17.0327 17.3538C16.3882 18.208 15.4834 18.8625 14.3193 19.3176C13.1553 19.7725 11.7939 20 10.2358 20L0 20L0 0L9.76562 0ZM7 8L7 6L9.71436 6C10.103 6 10.4146 6.08984 10.6489 6.26953C10.8828 6.44946 11 6.68628 11 6.98047C11 7.2876 10.8828 7.53442 10.6489 7.7207C10.4146 7.90698 10.103 8 9.71436 8L7 8ZM8.66748 15L5 15L5 12L8.66748 12C9.36475 12 9.92773 12.1301 10.3564 12.3904C10.7856 12.6506 11 12.9954 11 13.4246C11 13.8904 10.7881 14.2693 10.3647 14.5615C9.94092 14.854 9.37549 15 8.66748 15ZM42 11.3735C42 13.0952 41.6138 14.6084 40.8418 15.9136C40.0698 17.2185 38.9736 18.2258 37.5532 18.9355C36.1333 19.6453 34.4717 20 32.5688 20C30.666 20 28.9907 19.6453 27.543 18.9355C26.0952 18.2258 24.9761 17.2185 24.1855 15.9136C23.395 14.6084 23 13.0952 23 11.3735L23 0L29.5493 0L29.5493 11.3735C29.5493 12.3076 29.8457 13.0747 30.4385 13.6746C31.0317 14.2742 31.751 14.5742 32.5967 14.5742C33.4238 14.5742 34.1064 14.2834 34.644 13.7019C35.1816 13.1204 35.4507 12.3442 35.4507 11.3735L35.4507 0L42 0L42 11.3735ZM57.5669 0C59.0781 0 60.5845 0.208496 62.0869 0.625732C63.5894 1.04297 64.8936 1.60547 66 2.31299L63.6792 7.21094C62.5908 6.6123 61.4058 6.08154 60.1235 5.61914C58.8418 5.15649 57.8052 4.92505 57.0137 4.92505C56.2217 4.92505 55.8262 5.19727 55.8262 5.74146C55.8262 6.14966 56.0757 6.46948 56.5752 6.70068C57.0742 6.93188 57.8638 7.18823 58.9429 7.46948C60.3462 7.84131 61.5044 8.22217 62.4175 8.6123C63.3306 9.0022 64.1313 9.60986 64.8193 10.4353C65.5073 11.2607 65.8516 12.3628 65.8516 13.7415C65.8516 15.1384 65.4897 16.304 64.7651 17.238C64.041 18.1724 63.0605 18.8662 61.8237 19.3198C60.5869 19.7732 59.2129 20 57.7017 20C55.9927 20 54.2676 19.7278 52.5269 19.1836C50.7861 18.6394 49.2773 17.873 48 16.8843L50.3882 12.0408C51.3687 12.8572 52.5942 13.5669 54.0654 14.1702C55.5361 14.7732 56.7661 15.075 57.7559 15.075C58.79 15.075 59.3071 14.7393 59.3071 14.0681C59.3071 13.6416 59.0532 13.313 58.5449 13.0815C58.0366 12.8503 57.2202 12.594 56.0962 12.313C54.7285 11.9773 53.5864 11.6235 52.6685 11.2517C51.751 10.8799 50.957 10.2993 50.2871 9.51025C49.6167 8.72119 49.2817 7.66895 49.2817 6.35376C49.2817 5.07471 49.6216 3.95703 50.3008 3C50.98 2.04297 51.9468 1.30396 53.2017 0.782227C54.4565 0.260742 55.9116 0 57.5669 0ZM71 20L71 0L78 0L78 20L71 20ZM97.5928 20L89.8975 9.79102L89.8975 20L84 20L84 0L89.4209 0L97.1436 10.2786L97.1436 0L103 0L103 20L97.5928 20ZM116.563 5.02783L116.563 7.479L125.814 7.479L125.814 12.4929L116.563 12.4929L116.563 14.9861L127 14.9861L127 20L110 20L110 0L126.752 0L126.752 5.02783L116.563 5.02783ZM140.567 0C142.078 0 143.584 0.208496 145.087 0.625732C146.589 1.04297 147.894 1.60547 149 2.31299L146.679 7.21094C145.591 6.6123 144.406 6.08154 143.124 5.61914C141.842 5.15649 140.805 4.92505 140.014 4.92505C139.222 4.92505 138.826 5.19727 138.826 5.74146C138.826 6.14966 139.076 6.46948 139.575 6.70068C140.074 6.93188 140.864 7.18823 141.943 7.46948C143.346 7.84131 144.504 8.22217 145.417 8.6123C146.331 9.0022 147.131 9.60986 147.819 10.4353C148.507 11.2607 148.852 12.3628 148.852 13.7415C148.852 15.1384 148.489 16.304 147.765 17.238C147.041 18.1724 146.061 18.8662 144.824 19.3198C143.587 19.7732 142.213 20 140.702 20C138.993 20 137.268 19.7278 135.527 19.1836C133.786 18.6394 132.277 17.873 131 16.8843L133.388 12.0408C134.369 12.8572 135.594 13.5669 137.065 14.1702C138.536 14.7732 139.766 15.075 140.756 15.075C141.79 15.075 142.307 14.7393 142.307 14.0681C142.307 13.6416 142.053 13.313 141.545 13.0815C141.037 12.8503 140.22 12.594 139.096 12.313C137.729 11.9773 136.586 11.6235 135.668 11.2517C134.751 10.8799 133.957 10.2993 133.287 9.51025C132.617 8.72119 132.282 7.66895 132.282 6.35376C132.282 5.07471 132.622 3.95703 133.301 3C133.98 2.04297 134.947 1.30396 136.202 0.782227C137.457 0.260742 138.912 0 140.567 0ZM163.567 0C165.078 0 166.584 0.208496 168.087 0.625732C169.589 1.04297 170.894 1.60547 172 2.31299L169.679 7.21094C168.591 6.6123 167.406 6.08154 166.124 5.61914C164.842 5.15649 163.805 4.92505 163.014 4.92505C162.222 4.92505 161.826 5.19727 161.826 5.74146C161.826 6.14966 162.076 6.46948 162.575 6.70068C163.074 6.93188 163.864 7.18823 164.943 7.46948C166.346 7.84131 167.504 8.22217 168.417 8.6123C169.331 9.0022 170.131 9.60986 170.819 10.4353C171.507 11.2607 171.852 12.3628 171.852 13.7415C171.852 15.1384 171.489 16.304 170.765 17.238C170.041 18.1724 169.061 18.8662 167.824 19.3198C166.587 19.7732 165.213 20 163.702 20C161.993 20 160.268 19.7278 158.527 19.1836C156.786 18.6394 155.277 17.873 154 16.8843L156.388 12.0408C157.369 12.8572 158.594 13.5669 160.065 14.1702C161.536 14.7732 162.766 15.075 163.756 15.075C164.79 15.075 165.307 14.7393 165.307 14.0681C165.307 13.6416 165.053 13.313 164.545 13.0815C164.037 12.8503 163.22 12.594 162.096 12.313C160.729 11.9773 159.586 11.6235 158.668 11.2517C157.751 10.8799 156.957 10.2993 156.287 9.51025C155.617 8.72119 155.282 7.66895 155.282 6.35376C155.282 5.07471 155.622 3.95703 156.301 3C156.98 2.04297 157.947 1.30396 159.202 0.782227C160.457 0.260742 161.912 0 163.567 0Z" clip-rule="evenodd" fill="#007397" fill-opacity="1.000000" fill-rule="evenodd"/>
</svg>
