<svg width="27.697021" height="27.398193" viewBox="0 0 27.697 27.3982" fill="none" xmlns="http://www.w3.org/2000/svg" xmlns:xlink="http://www.w3.org/1999/xlink">
	<desc>
			Created with Pixso.
	</desc>
	<defs/>
	<path id="Fill 1" d="M0 13.6992C0 21.2524 6.2124 27.3982 13.8479 27.3982C21.4846 27.3982 27.6968 21.2524 27.6968 13.6992C27.6968 6.14575 21.4846 0.000244141 13.8479 0.000244141C6.2124 0.000244141 0 6.14575 0 13.6992ZM1.21729 13.6992C1.21729 6.80933 6.88306 1.20459 13.8479 1.20459C20.8125 1.20459 26.4795 6.80933 26.4795 13.6992C26.4795 20.5889 20.8125 26.1938 13.8479 26.1938C6.88306 26.1938 1.21729 20.5889 1.21729 13.6992Z" clip-rule="evenodd" fill="#007397" fill-opacity="1.000000" fill-rule="evenodd"/>
	<path id="Fill 3" d="M5.58057 13.6992C5.58057 21.2524 9.28882 27.3982 13.8479 27.3982C18.4058 27.3982 22.1128 21.2524 22.1128 13.6992C22.1128 6.14575 18.4058 0.000244141 13.8479 0.000244141C9.28882 0.000244141 5.58057 6.14575 5.58057 13.6992ZM6.79785 13.6992C6.79785 6.80933 9.96069 1.20459 13.8479 1.20459C17.7339 1.20459 20.8953 6.80933 20.8953 13.6992C20.8953 20.5889 17.7339 26.1938 13.8479 26.1938C9.96069 26.1938 6.79785 20.5889 6.79785 13.6992Z" clip-rule="evenodd" fill="#007397" fill-opacity="1.000000" fill-rule="evenodd"/>
	<path id="Fill 5" d="M13.2393 26.7957C13.2393 27.1294 13.512 27.3979 13.8479 27.3979C21.4846 27.3979 27.697 21.2522 27.697 13.699C27.697 6.14551 21.4846 0 13.8479 0C13.512 0 13.2393 0.269775 13.2393 0.602051L13.2393 26.7957ZM14.4565 26.1802L14.4565 1.21875C21.1401 1.53418 26.4795 7.01123 26.4795 13.6987C26.4795 20.3875 21.1401 25.8647 14.4565 26.1802Z" clip-rule="evenodd" fill="#007397" fill-opacity="1.000000" fill-rule="evenodd"/>
	<path id="Fill 8" d="M1.46851 18.9175L26.2241 18.9175C26.4773 18.9175 26.7036 18.762 26.7937 18.5283C27.3928 16.9592 27.697 15.3347 27.697 13.6992C27.697 12.0649 27.3928 10.4392 26.7937 8.86865C26.7036 8.63501 26.4773 8.47974 26.2241 8.47974L1.47217 8.47974C1.21875 8.47974 0.992432 8.63379 0.902344 8.86865C0.303467 10.4343 0.000244141 12.0588 0.000244141 13.6992C0.000244141 15.3359 0.302246 16.9604 0.898682 18.5271C0.987549 18.762 1.21509 18.9175 1.46851 18.9175ZM25.7969 17.7131L1.89697 17.7131C1.44531 16.4041 1.21753 15.0552 1.21753 13.6992C1.21753 12.3408 1.44653 10.9919 1.89941 9.68408L25.7957 9.68408C26.2495 10.9956 26.4797 12.3442 26.4797 13.6992C26.4797 15.054 26.2495 16.4028 25.7969 17.7131Z" clip-rule="evenodd" fill="#007397" fill-opacity="1.000000" fill-rule="evenodd"/>
</svg>
